<svg width="614" height="112" viewBox="0 0 614 112" fill="none" xmlns="http://www.w3.org/2000/svg">
<rect x="0.960754" y="2" width="110" height="110" rx="26.9608" fill="#1F68BF"/>
<path d="M56.9486 65.291C57.7639 65.291 58.3463 65.5239 58.6957 65.9898C59.0839 66.4557 59.278 67.0574 59.278 67.7951V75.5404C59.278 76.3945 58.9675 77.1127 58.3463 77.6951C57.7639 78.2774 57.0263 78.5686 56.1333 78.5686H30.3933C29.6169 78.5686 28.9957 78.3939 28.5298 78.0445C28.0639 77.6563 27.831 77.0739 27.831 76.2974V74.0263C27.831 73.2498 28.0639 72.6868 28.5298 72.3374C28.9957 71.9492 29.6169 71.7551 30.3933 71.7551H31.4416V44.6174H30.3933C29.6169 44.6174 28.9957 44.4427 28.5298 44.0933C28.0639 43.7051 27.831 43.1227 27.831 42.3462V40.0751C27.831 39.2986 28.0639 38.7357 28.5298 38.3862C28.9957 37.998 29.5975 37.8039 30.3351 37.8039H55.7839C56.6769 37.8039 57.4145 38.0951 57.9969 38.6774C58.618 39.2598 58.9286 39.9974 58.9286 40.8904V47.5292C58.9286 48.3057 58.7345 48.9268 58.3463 49.3927C57.9969 49.8586 57.4339 50.0915 56.6575 50.0915H54.3863C53.6098 50.0915 53.0275 49.8586 52.6392 49.3927C52.2898 48.9268 52.1151 48.3057 52.1151 47.5292V44.6174H39.5945V54.0515H49.3198C50.0575 54.0515 50.6592 54.3039 51.1251 54.8086C51.6298 55.2745 51.8822 55.8568 51.8822 56.5557V58.361C51.8822 59.0986 51.6298 59.7004 51.1251 60.1662C50.6592 60.6321 50.0575 60.8651 49.3198 60.8651H39.5945V71.7551H52.4063V67.7951C52.4063 67.0574 52.581 66.4557 52.9304 65.9898C53.3186 65.5239 53.9204 65.291 54.7357 65.291H56.9486ZM86.5426 69.018C87.1638 69.018 87.7073 69.2121 88.1732 69.6004C88.6391 69.9498 88.872 70.3962 88.872 70.9398C88.872 71.561 88.6779 72.2598 88.2897 73.0363C87.3967 74.8221 86.3291 76.2974 85.0867 77.4621C83.8444 78.588 82.1362 79.151 79.962 79.151C76.7785 79.151 74.352 78.1998 72.6826 76.2974C71.052 74.3951 70.2367 71.6192 70.2367 67.9698V53.9933H66.6262C65.9273 53.9933 65.3838 53.8186 64.9956 53.4692C64.6462 53.1198 64.4715 52.6345 64.4715 52.0133V51.3727C64.4715 50.7515 64.6462 50.2857 64.9956 49.9751C65.3838 49.6257 65.9273 49.451 66.6262 49.451H70.2367V44.0933C70.2367 43.3945 70.4115 42.8704 70.7609 42.521C71.1491 42.1327 71.6732 41.9386 72.3332 41.9386H73.4397C74.0997 41.9386 74.6044 42.1327 74.9538 42.521C75.3032 42.8704 75.4779 43.3945 75.4779 44.0933V49.451H83.0485C83.7473 49.451 84.2715 49.6257 84.6209 49.9751C85.0091 50.2857 85.2032 50.7515 85.2032 51.3727V52.0133C85.2032 52.6345 85.0091 53.1198 84.6209 53.4692C84.2715 53.8186 83.7473 53.9933 83.0485 53.9933H75.4779V67.8533C75.4779 72.3568 77.0309 74.6086 80.1367 74.6086C81.3403 74.6086 82.2332 74.298 82.8156 73.6768C83.4367 73.0168 84.0773 71.9298 84.7373 70.4157C85.0091 69.911 85.2615 69.5615 85.4944 69.3674C85.7662 69.1345 86.1156 69.018 86.5426 69.018Z" fill="#F2F2F2"/>
<path d="M165.204 65.2265C165.709 65.2265 166.097 65.4012 166.369 65.7506C166.641 66.0612 166.776 66.5271 166.776 67.1482V73.7288C166.776 74.35 166.544 74.8935 166.078 75.3594C165.651 75.7865 165.107 76 164.447 76H138.532C137.251 76 136.611 75.4759 136.611 74.4276V72.9718C136.611 71.9235 137.251 71.3994 138.532 71.3994H140.046V39.8359H138.532C137.251 39.8359 136.611 39.3118 136.611 38.2635V36.8076C136.611 35.7594 137.251 35.2353 138.532 35.2353H164.156C164.816 35.2353 165.359 35.4682 165.786 35.9341C166.214 36.3612 166.427 36.9047 166.427 37.5647V42.9806C166.427 44.2618 165.922 44.9024 164.913 44.9024H163.399C162.389 44.9024 161.885 44.2618 161.885 42.9806V39.8359H145.288V52.5894H158.099C158.565 52.5894 158.954 52.7641 159.264 53.1135C159.614 53.4241 159.788 53.8124 159.788 54.2782V55.5012C159.788 55.9671 159.614 56.3747 159.264 56.7241C158.954 57.0347 158.565 57.19 158.099 57.19H145.288V71.3994H162.176V67.1482C162.176 65.8671 162.7 65.2265 163.748 65.2265H165.204ZM201.22 71.3994C202.463 71.3994 203.084 71.9235 203.084 72.9718V74.4276C203.084 75.4759 202.463 76 201.22 76H192.252C190.971 76 190.33 75.4759 190.33 74.4276V72.9718C190.33 71.9235 190.971 71.3994 192.252 71.3994H195.455C194.096 71.3994 193.009 70.9335 192.194 70.0018L187.419 63.9453L181.537 71.3994H182.469C183.711 71.3994 184.332 71.9235 184.332 72.9718V74.4276C184.332 75.4759 183.711 76 182.469 76H174.782C173.539 76 172.918 75.4759 172.918 74.4276V72.9718C172.918 71.9235 173.539 71.3994 174.782 71.3994H176.354L184.565 60.9753L176.762 51.4829H175.131C173.85 51.4829 173.209 50.9588 173.209 49.9106V48.4547C173.209 47.4065 173.85 46.8824 175.131 46.8824H183.866C185.109 46.8824 185.73 47.4065 185.73 48.4547V49.9106C185.73 50.9588 185.109 51.4829 183.866 51.4829H180.896C182.294 51.4829 183.362 51.9488 184.099 52.8806L188.525 58.4712L194.057 51.4829H193.242C192 51.4829 191.379 50.9588 191.379 49.9106V48.4547C191.379 47.4065 192 46.8824 193.242 46.8824H201.046C202.288 46.8824 202.909 47.4065 202.909 48.4547V49.9106C202.909 50.9588 202.288 51.4829 201.046 51.4829H199.007L191.262 61.2665L199.59 71.3994H201.22ZM225.605 46.3C227.973 46.3 230.031 46.9018 231.778 48.1053C233.525 49.3088 234.884 51.0365 235.854 53.2882C236.825 55.5012 237.31 58.1024 237.31 61.0918C237.31 65.9059 236.165 69.6912 233.874 72.4476C231.584 75.2041 228.459 76.5824 224.499 76.5824C222.907 76.5824 221.373 76.2135 219.898 75.4759C218.423 74.6994 217.161 73.6124 216.113 72.2147V84.7935H217.627C218.908 84.7935 219.549 85.3176 219.549 86.3659V87.8218C219.549 88.87 218.908 89.3941 217.627 89.3941H209.416C208.134 89.3941 207.494 88.87 207.494 87.8218V86.3659C207.494 85.3176 208.134 84.7935 209.416 84.7935H210.93V51.4829H209.416C208.134 51.4829 207.494 50.9588 207.494 49.9106V48.4547C207.494 47.4065 208.134 46.8824 209.416 46.8824H214.074C214.657 46.8824 215.142 47.0959 215.53 47.5229C215.919 47.9112 216.113 48.4159 216.113 49.0371V52.7059C216.812 50.8812 218.054 49.3671 219.84 48.1635C221.664 46.9212 223.586 46.3 225.605 46.3ZM223.974 72.04C226.576 72.04 228.556 71.0888 229.914 69.1865C231.312 67.2453 232.011 64.45 232.011 60.8006C232.011 57.6559 231.351 55.21 230.031 53.4629C228.711 51.7159 226.847 50.8424 224.44 50.8424C222.926 50.8424 221.529 51.2694 220.247 52.1235C218.966 52.9388 217.957 54.0647 217.219 55.5012C216.482 56.9376 216.113 58.51 216.113 60.2182V67.7306C217.161 69.1282 218.364 70.1959 219.723 70.9335C221.082 71.6712 222.499 72.04 223.974 72.04ZM269.662 59.9853C269.662 60.1794 269.604 61.0335 269.488 62.5476H248.814C249.008 65.4982 249.862 67.8276 251.376 69.5359C252.891 71.2053 254.909 72.04 257.433 72.04C259.141 72.04 260.5 71.7682 261.509 71.2247C262.519 70.6812 263.47 69.7106 264.363 68.3129C264.673 67.8471 264.965 67.5171 265.236 67.3229C265.547 67.1288 265.896 67.0318 266.285 67.0318C266.867 67.0318 267.372 67.2259 267.799 67.6141C268.265 67.9635 268.498 68.41 268.498 68.9535C268.498 69.6912 268.226 70.4482 267.682 71.2247C266.556 73.0494 265.159 74.4082 263.489 75.3012C261.82 76.1553 259.743 76.5824 257.258 76.5824C254.502 76.5824 252.075 75.9418 249.979 74.6606C247.921 73.3794 246.31 71.5741 245.145 69.2447C244.019 66.9153 243.456 64.2365 243.456 61.2082C243.456 58.2188 244.019 55.5982 245.145 53.3465C246.271 51.0947 247.863 49.3671 249.921 48.1635C251.978 46.9212 254.366 46.3 257.083 46.3C260.849 46.3 263.878 47.5035 266.168 49.9106C268.498 52.3176 269.662 55.6759 269.662 59.9853ZM256.967 50.6094C254.676 50.6094 252.832 51.3082 251.435 52.7059C250.076 54.0647 249.241 56.0447 248.931 58.6459H264.363C264.324 53.2882 261.859 50.6094 256.967 50.6094ZM304.821 71.3994C306.063 71.3994 306.684 71.9235 306.684 72.9718V74.4276C306.684 75.4759 306.063 76 304.821 76H296.726C295.445 76 294.804 75.4759 294.804 74.4276V72.9718C294.804 71.9235 295.445 71.3994 296.726 71.3994H298.066V60.16C298.066 56.7047 297.639 54.2976 296.784 52.9388C295.969 51.5412 294.533 50.8424 292.475 50.8424C291.039 50.8424 289.66 51.3276 288.34 52.2982C287.059 53.23 286.011 54.4529 285.196 55.9671C284.419 57.4812 284.031 59.0729 284.031 60.7424V71.3994H285.37C286.652 71.3994 287.292 71.9235 287.292 72.9718V74.4276C287.292 75.4759 286.652 76 285.37 76H277.276C276.033 76 275.412 75.4759 275.412 74.4276V72.9718C275.412 71.9235 276.033 71.3994 277.276 71.3994H278.79V51.4829H277.276C276.033 51.4829 275.412 50.9588 275.412 49.9106V48.4547C275.412 47.4065 276.033 46.8824 277.276 46.8824H281.876C282.497 46.8824 283.002 47.0959 283.39 47.5229C283.817 47.9112 284.031 48.4159 284.031 49.0371V53.4047C284.846 51.3471 286.166 49.6582 287.991 48.3382C289.854 46.9794 291.776 46.3 293.756 46.3C300.123 46.3 303.307 50.6482 303.307 59.3447V71.3994H304.821ZM325.096 59.0535C328.746 60.1018 331.328 61.3053 332.842 62.6641C334.356 63.9841 335.113 65.7506 335.113 67.9635C335.113 69.6329 334.628 71.1276 333.657 72.4476C332.686 73.7288 331.308 74.7382 329.522 75.4759C327.775 76.2135 325.756 76.5824 323.466 76.5824C319.855 76.5824 316.963 75.9029 314.789 74.5441C312.653 73.1465 311.586 71.3412 311.586 69.1282C311.586 68.0024 311.896 67.1094 312.518 66.4494C313.139 65.7894 313.973 65.4594 315.022 65.4594C315.915 65.4594 316.652 65.77 317.235 66.3912C317.856 67.0124 318.166 67.7694 318.166 68.6624C318.166 69.4776 317.914 70.1376 317.409 70.6424C318.341 71.9624 320.341 72.6224 323.408 72.6224C325.504 72.6224 327.096 72.2535 328.183 71.5159C329.309 70.7782 329.872 69.7882 329.872 68.5459C329.872 67.7306 329.697 67.0706 329.348 66.5659C328.998 66.0224 328.377 65.5565 327.484 65.1682C326.63 64.7412 325.31 64.2753 323.524 63.7706C320.612 62.9553 318.341 62.14 316.711 61.3247C315.119 60.4706 313.973 59.5388 313.275 58.5294C312.576 57.4812 312.226 56.1806 312.226 54.6276C312.226 52.9971 312.712 51.5606 313.682 50.3182C314.653 49.0371 315.992 48.0471 317.701 47.3482C319.448 46.6494 321.428 46.3 323.641 46.3C327.096 46.3 329.794 46.9212 331.735 48.1635C333.676 49.3671 334.647 51.0559 334.647 53.23C334.647 54.3559 334.336 55.2682 333.715 55.9671C333.094 56.6271 332.279 56.9571 331.269 56.9571C330.338 56.9571 329.561 56.6465 328.94 56.0253C328.358 55.4041 328.066 54.6276 328.066 53.6959C328.066 52.8806 328.319 52.2206 328.823 51.7159C327.969 50.7453 326.222 50.26 323.582 50.26C321.758 50.26 320.282 50.6482 319.156 51.4247C318.031 52.2012 317.468 53.2106 317.468 54.4529C317.468 55.1129 317.681 55.6759 318.108 56.1418C318.535 56.6076 319.273 57.0541 320.321 57.4812C321.408 57.9082 323 58.4324 325.096 59.0535ZM367.479 59.9853C367.479 60.1794 367.421 61.0335 367.305 62.5476H346.631C346.825 65.4982 347.679 67.8276 349.194 69.5359C350.708 71.2053 352.726 72.04 355.25 72.04C356.958 72.04 358.317 71.7682 359.326 71.2247C360.336 70.6812 361.287 69.7106 362.18 68.3129C362.491 67.8471 362.782 67.5171 363.054 67.3229C363.364 67.1288 363.714 67.0318 364.102 67.0318C364.684 67.0318 365.189 67.2259 365.616 67.6141C366.082 67.9635 366.315 68.41 366.315 68.9535C366.315 69.6912 366.043 70.4482 365.499 71.2247C364.374 73.0494 362.976 74.4082 361.306 75.3012C359.637 76.1553 357.56 76.5824 355.075 76.5824C352.319 76.5824 349.892 75.9418 347.796 74.6606C345.738 73.3794 344.127 71.5741 342.962 69.2447C341.836 66.9153 341.274 64.2365 341.274 61.2082C341.274 58.2188 341.836 55.5982 342.962 53.3465C344.088 51.0947 345.68 49.3671 347.738 48.1635C349.795 46.9212 352.183 46.3 354.901 46.3C358.666 46.3 361.695 47.5035 363.985 49.9106C366.315 52.3176 367.479 55.6759 367.479 59.9853ZM354.784 50.6094C352.494 50.6094 350.649 51.3082 349.252 52.7059C347.893 54.0647 347.058 56.0447 346.748 58.6459H362.18C362.141 53.2882 359.676 50.6094 354.784 50.6094ZM419.143 35.2353C419.803 35.2353 420.346 35.4682 420.773 35.9341C421.239 36.3612 421.472 36.9047 421.472 37.5647V43.7959C421.472 45.0771 420.948 45.7176 419.9 45.7176H418.444C417.396 45.7176 416.872 45.0771 416.872 43.7959V39.8359H408.078V71.3994H409.592C410.873 71.3994 411.514 71.9235 411.514 72.9718V74.4276C411.514 75.4759 410.873 76 409.592 76H401.323C400.08 76 399.459 75.4759 399.459 74.4276V72.9718C399.459 71.9235 400.08 71.3994 401.323 71.3994H402.837V39.8359H394.043V43.7959C394.043 45.0771 393.519 45.7176 392.471 45.7176H391.015C389.967 45.7176 389.443 45.0771 389.443 43.7959V37.5647C389.443 36.9047 389.656 36.3612 390.083 35.9341C390.51 35.4682 391.054 35.2353 391.714 35.2353H419.143ZM444.384 46.3C445.937 46.3 447.121 46.6688 447.936 47.4065C448.752 48.1053 449.159 49.0953 449.159 50.3765C449.159 51.3859 448.829 52.24 448.169 52.9388C447.509 53.5988 446.655 53.9288 445.607 53.9288C444.675 53.9288 443.899 53.6571 443.278 53.1135C442.656 52.5312 442.307 51.7935 442.229 50.9006C441.026 51.0171 439.919 51.5994 438.91 52.6476C437.901 53.6571 437.085 54.9771 436.464 56.6076C435.882 58.1994 435.591 59.9076 435.591 61.7324V71.3994H438.328C439.609 71.3994 440.249 71.9235 440.249 72.9718V74.4276C440.249 75.4759 439.609 76 438.328 76H428.835C427.593 76 426.972 75.4759 426.972 74.4276V72.9718C426.972 71.9235 427.593 71.3994 428.835 71.3994H430.349V51.4829H428.835C427.593 51.4829 426.972 50.9588 426.972 49.9106V48.4547C426.972 47.4065 427.593 46.8824 428.835 46.8824H433.436C434.057 46.8824 434.562 47.0959 434.95 47.5229C435.377 47.9112 435.591 48.4159 435.591 49.0371V54.1618C436.289 51.7547 437.415 49.8524 438.968 48.4547C440.56 47.0182 442.365 46.3 444.384 46.3ZM478.979 71.3994C480.221 71.3994 480.843 71.9235 480.843 72.9718V74.4276C480.843 75.4759 480.221 76 478.979 76H474.32C473.738 76 473.233 75.8059 472.806 75.4176C472.418 74.9906 472.224 74.4665 472.224 73.8453V70.1765C471.486 72.0012 470.205 73.5347 468.38 74.7771C466.594 75.9806 464.692 76.5824 462.673 76.5824C459.956 76.5824 457.762 75.8059 456.093 74.2529C454.423 72.6612 453.588 70.5647 453.588 67.9635C453.588 65.2459 454.501 63.1494 456.326 61.6741C458.189 60.1988 460.829 59.4612 464.246 59.4612C466.847 59.4612 469.506 59.7718 472.224 60.3929V57.7724C472.224 55.3653 471.661 53.5794 470.535 52.4147C469.409 51.25 467.662 50.6676 465.294 50.6676C463.469 50.6676 462.11 51.0171 461.217 51.7159C461.489 52.1818 461.625 52.6865 461.625 53.23C461.625 54.1229 461.314 54.88 460.693 55.5012C460.072 56.1224 459.315 56.4329 458.422 56.4329C457.374 56.4329 456.539 56.1029 455.918 55.4429C455.297 54.7829 454.986 53.89 454.986 52.7641C454.986 50.8618 455.976 49.3088 457.956 48.1053C459.936 46.9018 462.46 46.3 465.527 46.3C469.37 46.3 472.301 47.3288 474.32 49.3865C476.378 51.4441 477.407 54.3559 477.407 58.1218V71.3994H478.979ZM463.896 72.3312C465.371 72.3312 466.73 71.9429 467.973 71.1665C469.254 70.3512 470.263 69.2835 471.001 67.9635C471.777 66.6047 472.185 65.1294 472.224 63.5376C470.477 63.2659 468.07 63.13 465.003 63.13C460.81 63.13 458.713 64.6829 458.713 67.7888C458.713 69.2253 459.179 70.3512 460.111 71.1665C461.043 71.9429 462.304 72.3312 463.896 72.3312ZM508.609 67.0318C509.192 67.0318 509.697 67.2259 510.124 67.6141C510.589 67.9635 510.822 68.41 510.822 68.9535C510.822 69.6912 510.551 70.4482 510.007 71.2247C508.881 73.0494 507.484 74.4082 505.814 75.3012C504.145 76.1553 502.068 76.5824 499.583 76.5824C496.827 76.5824 494.4 75.9418 492.304 74.6606C490.246 73.3794 488.635 71.5741 487.47 69.2447C486.344 66.9153 485.781 64.2365 485.781 61.2082C485.781 58.2188 486.344 55.5982 487.47 53.3465C488.635 51.0947 490.246 49.3671 492.304 48.1635C494.361 46.9212 496.749 46.3 499.467 46.3C501.718 46.3 503.718 46.6882 505.465 47.4647C507.212 48.2412 508.571 49.3476 509.541 50.7841C510.512 52.1818 510.997 53.7735 510.997 55.5594C510.997 56.7629 510.667 57.7141 510.007 58.4129C509.347 59.1118 508.474 59.4612 507.387 59.4612C506.416 59.4612 505.601 59.1506 504.941 58.5294C504.319 57.9082 504.009 57.1318 504.009 56.2C504.009 55.1129 504.378 54.2394 505.115 53.5794C504.649 52.6865 503.912 52.0071 502.902 51.5412C501.932 51.0753 500.728 50.8424 499.292 50.8424C496.652 50.8424 494.614 51.7353 493.177 53.5212C491.779 55.3071 491.081 57.85 491.081 61.15C491.081 64.5276 491.838 67.1871 493.352 69.1282C494.905 71.0694 497.04 72.04 499.758 72.04C501.466 72.04 502.825 71.7682 503.834 71.2247C504.844 70.6812 505.795 69.7106 506.688 68.3129C506.998 67.8471 507.289 67.5171 507.561 67.3229C507.872 67.1288 508.221 67.0318 508.609 67.0318ZM544.2 71.3994C545.443 71.3994 546.064 71.9235 546.064 72.9718V74.4276C546.064 75.4759 545.443 76 544.2 76H540.182C539.871 76 539.6 75.9612 539.367 75.8835C539.173 75.7671 538.94 75.5535 538.668 75.2429L524.633 61.15V71.3994H526.147C527.429 71.3994 528.069 71.9235 528.069 72.9718V74.4276C528.069 75.4759 527.429 76 526.147 76H517.994C516.713 76 516.073 75.4759 516.073 74.4276V72.9718C516.073 71.9235 516.713 71.3994 517.994 71.3994H519.509V37.5065H517.994C516.713 37.5065 516.073 36.9824 516.073 35.9341V34.4782C516.073 33.43 516.713 32.9059 517.994 32.9059H522.479C523.1 32.9059 523.604 33.1194 523.993 33.5465C524.42 33.9347 524.633 34.4394 524.633 35.0606V59.6941L532.67 53.6376C534.494 52.2012 535.989 51.4829 537.154 51.4829H534.126C532.883 51.4829 532.262 50.9588 532.262 49.9106V48.4547C532.262 47.4065 532.883 46.8824 534.126 46.8824H543.851C545.132 46.8824 545.773 47.4065 545.773 48.4547V49.9106C545.773 50.9588 545.132 51.4829 543.851 51.4829H541.813L530.34 60.0435L541.696 71.3994H544.2ZM575.909 59.9853C575.909 60.1794 575.851 61.0335 575.735 62.5476H555.061C555.255 65.4982 556.109 67.8276 557.624 69.5359C559.138 71.2053 561.157 72.04 563.68 72.04C565.388 72.04 566.747 71.7682 567.757 71.2247C568.766 70.6812 569.717 69.7106 570.61 68.3129C570.921 67.8471 571.212 67.5171 571.484 67.3229C571.794 67.1288 572.144 67.0318 572.532 67.0318C573.114 67.0318 573.619 67.2259 574.046 67.6141C574.512 67.9635 574.745 68.41 574.745 68.9535C574.745 69.6912 574.473 70.4482 573.929 71.2247C572.804 73.0494 571.406 74.4082 569.737 75.3012C568.067 76.1553 565.99 76.5824 563.505 76.5824C560.749 76.5824 558.322 75.9418 556.226 74.6606C554.168 73.3794 552.557 71.5741 551.392 69.2447C550.267 66.9153 549.704 64.2365 549.704 61.2082C549.704 58.2188 550.267 55.5982 551.392 53.3465C552.518 51.0947 554.11 49.3671 556.168 48.1635C558.225 46.9212 560.613 46.3 563.331 46.3C567.097 46.3 570.125 47.5035 572.415 49.9106C574.745 52.3176 575.909 55.6759 575.909 59.9853ZM563.214 50.6094C560.924 50.6094 559.079 51.3082 557.682 52.7059C556.323 54.0647 555.488 56.0447 555.178 58.6459H570.61C570.571 53.2882 568.106 50.6094 563.214 50.6094ZM599.072 46.3C600.625 46.3 601.809 46.6688 602.624 47.4065C603.439 48.1053 603.847 49.0953 603.847 50.3765C603.847 51.3859 603.517 52.24 602.857 52.9388C602.197 53.5988 601.343 53.9288 600.295 53.9288C599.363 53.9288 598.586 53.6571 597.965 53.1135C597.344 52.5312 596.995 51.7935 596.917 50.9006C595.713 51.0171 594.607 51.5994 593.598 52.6476C592.588 53.6571 591.773 54.9771 591.152 56.6076C590.569 58.1994 590.278 59.9076 590.278 61.7324V71.3994H593.015C594.296 71.3994 594.937 71.9235 594.937 72.9718V74.4276C594.937 75.4759 594.296 76 593.015 76H583.523C582.28 76 581.659 75.4759 581.659 74.4276V72.9718C581.659 71.9235 582.28 71.3994 583.523 71.3994H585.037V51.4829H583.523C582.28 51.4829 581.659 50.9588 581.659 49.9106V48.4547C581.659 47.4065 582.28 46.8824 583.523 46.8824H588.123C588.745 46.8824 589.249 47.0959 589.638 47.5229C590.065 47.9112 590.278 48.4159 590.278 49.0371V54.1618C590.977 51.7547 592.103 49.8524 593.656 48.4547C595.248 47.0182 597.053 46.3 599.072 46.3Z" fill="#5B5959"/>
</svg>
