<svg width="128" height="127" viewBox="0 0 128 127" fill="none" xmlns="http://www.w3.org/2000/svg">
<rect x="12" y="15" width="102" height="102" rx="25" fill="#1F68BF"/>
<path d="M63.916 73.688C64.672 73.688 65.212 73.904 65.536 74.336C65.896 74.768 66.076 75.326 66.076 76.01V83.192C66.076 83.984 65.788 84.65 65.212 85.19C64.672 85.73 63.988 86 63.16 86H39.292C38.572 86 37.996 85.838 37.564 85.514C37.132 85.154 36.916 84.614 36.916 83.894V81.788C36.916 81.068 37.132 80.546 37.564 80.222C37.996 79.862 38.572 79.682 39.292 79.682H40.264V54.518H39.292C38.572 54.518 37.996 54.356 37.564 54.032C37.132 53.672 36.916 53.132 36.916 52.412V50.306C36.916 49.586 37.132 49.064 37.564 48.74C37.996 48.38 38.554 48.2 39.238 48.2H62.836C63.664 48.2 64.348 48.47 64.888 49.01C65.464 49.55 65.752 50.234 65.752 51.062V57.218C65.752 57.938 65.572 58.514 65.212 58.946C64.888 59.378 64.366 59.594 63.646 59.594H61.54C60.82 59.594 60.28 59.378 59.92 58.946C59.596 58.514 59.434 57.938 59.434 57.218V54.518H47.824V63.266H56.842C57.526 63.266 58.084 63.5 58.516 63.968C58.984 64.4 59.218 64.94 59.218 65.588V67.262C59.218 67.946 58.984 68.504 58.516 68.936C58.084 69.368 57.526 69.584 56.842 69.584H47.824V79.682H59.704V76.01C59.704 75.326 59.866 74.768 60.19 74.336C60.55 73.904 61.108 73.688 61.864 73.688H63.916ZM91.3577 77.144C91.9337 77.144 92.4377 77.324 92.8697 77.684C93.3017 78.008 93.5177 78.422 93.5177 78.926C93.5177 79.502 93.3377 80.15 92.9777 80.87C92.1497 82.526 91.1597 83.894 90.0077 84.974C88.8557 86.018 87.2717 86.54 85.2557 86.54C82.3037 86.54 80.0537 85.658 78.5057 83.894C76.9937 82.13 76.2377 79.556 76.2377 76.172V63.212H72.8897C72.2417 63.212 71.7377 63.05 71.3777 62.726C71.0537 62.402 70.8917 61.952 70.8917 61.376V60.782C70.8917 60.206 71.0537 59.774 71.3777 59.486C71.7377 59.162 72.2417 59 72.8897 59H76.2377V54.032C76.2377 53.384 76.3997 52.898 76.7237 52.574C77.0837 52.214 77.5697 52.034 78.1817 52.034H79.2077C79.8197 52.034 80.2877 52.214 80.6117 52.574C80.9357 52.898 81.0977 53.384 81.0977 54.032V59H88.1177C88.7657 59 89.2517 59.162 89.5757 59.486C89.9357 59.774 90.1157 60.206 90.1157 60.782V61.376C90.1157 61.952 89.9357 62.402 89.5757 62.726C89.2517 63.05 88.7657 63.212 88.1177 63.212H81.0977V76.064C81.0977 80.24 82.5377 82.328 85.4177 82.328C86.5337 82.328 87.3617 82.04 87.9017 81.464C88.4777 80.852 89.0717 79.844 89.6837 78.44C89.9357 77.972 90.1697 77.648 90.3857 77.468C90.6377 77.252 90.9617 77.144 91.3577 77.144Z" fill="#F2F2F2"/>
</svg>
